<?xml version="1.0" encoding="UTF-8" standalone="no"?>
<svg
   width="419"
   height="519"
   viewBox="0 0 419 519"
   fill="none"
   version="1.1"
   id="svg143"
   sodipodi:docname="dotnet_bot.svg"
   inkscape:version="1.2 (dc2aeda, 2022-05-15)"
   xmlns:inkscape="http://www.inkscape.org/namespaces/inkscape"
   xmlns:sodipodi="http://sodipodi.sourceforge.net/DTD/sodipodi-0.dtd"
   xmlns="http://www.w3.org/2000/svg"
   xmlns:svg="http://www.w3.org/2000/svg">
  <sodipodi:namedview
     id="namedview145"
     pagecolor="#ffffff"
     bordercolor="#000000"
     borderopacity="0.25"
     inkscape:showpageshadow="2"
     inkscape:pageopacity="0.0"
     inkscape:pagecheckerboard="0"
     inkscape:deskcolor="#d1d1d1"
     showgrid="false"
     inkscape:zoom="0.45472062"
     inkscape:cx="211.11864"
     inkscape:cy="259.5"
     inkscape:window-width="1367"
     inkscape:window-height="456"
     inkscape:window-x="0"
     inkscape:window-y="25"
     inkscape:window-maximized="0"
     inkscape:current-layer="svg143" />
  <defs
     id="defs141">
    <radialGradient
       id="paint0_radial"
       cx="0"
       cy="0"
       r="1"
       gradientUnits="userSpaceOnUse"
       gradientTransform="translate(382.004 103.457) scale(26.4058)">
      <stop
         stop-color="#8065E0"
         id="stop76" />
      <stop
         offset="1"
         stop-color="#512BD4"
         id="stop78" />
    </radialGradient>
    <linearGradient
       id="paint1_linear"
       x1="214.439"
       y1="303.482"
       x2="236.702"
       y2="409.505"
       gradientUnits="userSpaceOnUse">
      <stop
         stop-color="#522CD5"
         id="stop81" />
      <stop
         offset="0.4397"
         stop-color="#8A6FE8"
         id="stop83" />
    </linearGradient>
    <linearGradient
       id="paint2_linear"
       x1="231.673"
       y1="404.144"
       x2="297.805"
       y2="522.048"
       gradientUnits="userSpaceOnUse">
      <stop
         stop-color="#522CD5"
         id="stop86" />
      <stop
         offset="0.4397"
         stop-color="#8A6FE8"
         id="stop88" />
    </linearGradient>
    <radialGradient
       id="paint3_radial"
       cx="0"
       cy="0"
       r="1"
       gradientUnits="userSpaceOnUse"
       gradientTransform="translate(280.957 469.555) rotate(-0.260742) scale(45.8326)">
      <stop
         offset="0.034"
         stop-color="#522CD5"
         id="stop91" />
      <stop
         offset="0.9955"
         stop-color="#8A6FE8"
         id="stop93" />
    </radialGradient>
    <linearGradient
       id="paint4_linear"
       x1="166.061"
       y1="303.491"
       x2="144.763"
       y2="409.709"
       gradientUnits="userSpaceOnUse">
      <stop
         stop-color="#522CD5"
         id="stop96" />
      <stop
         offset="0.4397"
         stop-color="#8A6FE8"
         id="stop98" />
    </linearGradient>
    <linearGradient
       id="paint5_linear"
       x1="146.739"
       y1="407.302"
       x2="147.246"
       y2="518.627"
       gradientUnits="userSpaceOnUse">
      <stop
         stop-color="#522CD5"
         id="stop101" />
      <stop
         offset="0.4397"
         stop-color="#8A6FE8"
         id="stop103" />
    </linearGradient>
    <radialGradient
       id="paint6_radial"
       cx="0"
       cy="0"
       r="1"
       gradientUnits="userSpaceOnUse"
       gradientTransform="translate(148.63 470.023) rotate(179.739) scale(50.2476)">
      <stop
         offset="0.034"
         stop-color="#522CD5"
         id="stop106" />
      <stop
         offset="0.9955"
         stop-color="#8A6FE8"
         id="stop108" />
    </radialGradient>
    <radialGradient
       id="paint7_radial"
       cx="0"
       cy="0"
       r="1"
       gradientUnits="userSpaceOnUse"
       gradientTransform="translate(219.219 153.929) rotate(179.739) scale(140.935)">
      <stop
         offset="0.4744"
         stop-color="#A08BE8"
         id="stop111" />
      <stop
         offset="0.8618"
         stop-color="#8065E0"
         id="stop113" />
    </radialGradient>
    <radialGradient
       id="paint8_radial"
       cx="0"
       cy="0"
       r="1"
       gradientUnits="userSpaceOnUse"
       gradientTransform="translate(314.861 158.738) rotate(179.739) scale(146.053)">
      <stop
         offset="0.0933"
         stop-color="#E1DFDD"
         id="stop116" />
      <stop
         offset="0.6573"
         stop-color="white"
         id="stop118" />
    </radialGradient>
    <linearGradient
       id="paint9_linear"
       x1="54.1846"
       y1="217.159"
       x2="54.1846"
       y2="357.022"
       gradientUnits="userSpaceOnUse">
      <stop
         offset="0.3344"
         stop-color="#9780E6"
         id="stop121" />
      <stop
         offset="0.8488"
         stop-color="#8A6FE8"
         id="stop123" />
    </linearGradient>
    <radialGradient
       id="paint10_radial"
       cx="0"
       cy="0"
       r="1"
       gradientUnits="userSpaceOnUse"
       gradientTransform="translate(90.3494 218.071) rotate(-0.260742) scale(25.9924)">
      <stop
         stop-color="#8065E0"
         id="stop126" />
      <stop
         offset="1"
         stop-color="#512BD4"
         id="stop128" />
    </radialGradient>
    <radialGradient
       id="paint11_radial"
       cx="0"
       cy="0"
       r="1"
       gradientUnits="userSpaceOnUse"
       gradientTransform="translate(25.805 345.043) scale(26.4106)">
      <stop
         stop-color="#8065E0"
         id="stop131" />
      <stop
         offset="1"
         stop-color="#512BD4"
         id="stop133" />
    </radialGradient>
    <radialGradient
       id="paint12_radial"
       cx="0"
       cy="0"
       r="1"
       gradientUnits="userSpaceOnUse"
       gradientTransform="translate(169.113 67.3662) rotate(-32.2025) scale(21.0773)">
      <stop
         stop-color="#8065E0"
         id="stop136" />
      <stop
         offset="1"
         stop-color="#512BD4"
         id="stop138" />
    </radialGradient>
  </defs>
  <path
     style="fill:#ff0000"
     id="path457"
     d="m 111.70071,90.034611 c -1.63651,4.062213 -3.39896,8.093863 -5.52649,11.926809 -1.5089,2.33441 -1.93679,5.08484 -2.90594,7.62501 -1.05879,1.71357 -1.65519,3.50495 -1.92821,5.49088 -0.26071,2.06979 -0.26421,4.15638 -0.28286,6.23846 -0.0101,2.04424 0.0174,4.08829 0.0177,6.13247 -0.0199,2.40925 -0.13428,4.7642 0.52721,7.0989 0.50391,1.37724 1.12387,2.68129 1.57875,4.07383 3.08872,4.55971 11.13884,6.89181 14.28372,8.6028 0.66721,0.36301 1.83429,0.21187 2.60661,0.52597 3.12373,0.95607 6.38865,1.31183 9.62857,1.6177 2.2824,0.16422 4.56871,0.21164 6.85609,0.20314 2.07628,0.31459 3.65925,-0.4735 5.51933,-1.24614 2.43363,-1.29512 4.48565,-2.89638 6.45809,-4.81317 2.28834,-2.11239 4.20208,-4.55483 6.26859,-6.85893 1.51679,-1.79915 2.63636,-3.74099 3.31243,-5.98581 0.34735,-1.53613 0.35083,-3.11003 0.36717,-4.67531 -0.005,-1.69469 -0.0459,-3.38939 -0.0679,-5.08407 0.0895,-4.98591 -0.59134,-9.94818 -1.59653,-14.8216 -0.94338,-5.50308 -2.79727,-10.699241 -4.78849,-15.888912 -1.39338,-3.281166 -2.82571,-6.477273 -4.94092,-9.352109 -4.32941,-5.227468 -10.70506,-9.887031 -17.55797,-10.43381 -1.92183,-0.155663 -3.82135,-0.27915 -5.66233,0.320273 -2.32028,0.840326 -4.47796,2.25397 -6.34479,3.866094 -1.70449,0.741128 -1.89306,2.86232 -3.07031,3.97856 -0.91828,1.196693 -1.70488,2.38574 -2.10235,3.84469 -0.27509,0.982512 -0.30428,1.991536 -0.32368,3.003407 0.23599,1.545192 -0.65321,2.723398 -1.16449,4.116729 -0.3392,1.747857 -1.01021,3.232364 -1.79479,4.801811 -0.94838,1.567451 -0.86596,3.473678 -1.46764,5.139812 -0.51796,0.885575 -0.25446,0.39596 -0.77107,1.479135 0,0 13.05792,7.4057 13.05792,7.4057 v 0 c 0.50213,-1.04324 0.22939,-0.52074 0.82208,-1.56548 0.68568,-1.61605 0.56157,-3.44646 1.40155,-5.02968 0.82066,-1.62532 1.61142,-3.127766 1.87835,-4.960978 0.53953,-1.532357 1.65165,-2.852987 1.4544,-4.542096 -0.008,-0.902645 -0.0291,-1.809995 0.14512,-2.700829 0.25811,-1.246695 0.94665,-2.242086 1.7457,-3.229805 0.99365,-1.274739 1.36451,-2.919023 2.89638,-3.785701 1.79017,-1.403088 3.69559,-2.765441 5.94678,-3.290687 1.77419,-0.19911 3.57268,-0.135378 5.33088,0.19381 9.536,2.947945 -18.41531,-12.131562 -8.14742,-4.594393 0.74873,1.164857 1.78985,2.114753 2.47544,3.316409 1.05326,1.846082 1.59769,3.97625 2.73424,5.784883 2.06059,5.118958 4.02156,10.21833 4.92041,15.693474 1.1138,4.723323 1.78195,9.602513 1.59128,14.462283 -0.0137,1.68277 -0.0442,3.36629 -0.004,5.04878 0.025,1.44121 0.0395,2.89047 -0.16621,4.32085 -0.50437,2.06465 -1.51917,3.81434 -2.90426,5.43486 -2.00214,2.3134 -3.93994,4.67749 -6.20481,6.75599 -1.8428,1.76761 -3.87049,3.2224 -6.19505,4.30251 -1.71921,0.68291 -3.32025,0.93606 -5.18054,0.76902 -2.24513,-0.0266 -4.49288,-0.0663 -6.72913,-0.2871 -3.21273,-0.33852 -6.415,-0.83972 -9.49039,-1.86329 -0.18649,-0.037 -1.65912,-0.31865 -1.99649,-0.41725 -0.20275,-0.0593 -0.77321,-0.33495 -0.5917,-0.22689 20.96006,12.47887 15.77908,9.17801 11.35781,6.66383 -1.06702,-0.60636 -0.87054,-2.74813 -1.80894,-3.70588 -0.86518,-2.18345 -0.83278,-4.32404 -0.73416,-6.66227 -0.008,-2.04024 0.003,-4.08042 -0.0105,-6.12065 -0.006,-2.02874 -9e-5,-4.06138 0.18045,-6.08371 0.21468,-1.87509 0.75264,-3.52867 1.75185,-5.14614 1.0372,-2.45207 1.22383,-5.23784 2.73279,-7.52701 2.09235,-3.91864 3.85099,-7.99888 5.66792,-12.049022 0,0 -13.05483,-7.290157 -13.05483,-7.290157 z" />
  <path
     style="fill:#ff0000"
     id="path459"
     d="m 120.88422,145.26169 c 0.0976,4.60076 0.0744,9.20334 0.0317,13.80465 -0.0131,3.30873 -0.003,6.61747 -0.0282,9.92615 0.004,2.92997 0.017,5.85986 -0.002,8.7898 0.0138,3.0162 0.005,6.03236 0.014,9.04856 -0.007,2.98173 -0.0128,5.9635 -0.003,8.94523 -0.0144,2.52286 -0.002,5.04577 -0.0309,7.56853 -0.0133,1.24359 -0.008,2.48713 -0.0312,3.7307 0.008,0.83705 -0.005,1.67472 0.01,2.51185 -0.0622,1.34655 0.17092,2.71899 -0.14092,4.03685 -0.83649,2.0676 -1.38809,4.19766 -1.73478,6.39663 -0.41282,2.09863 -0.0712,4.26251 -0.48778,6.34953 -0.87775,2.65641 -1.383,5.38237 -1.71162,8.15285 -0.32652,2.67777 0.0756,5.40407 -0.81619,7.98021 -0.62201,1.81634 -1.16578,3.61323 -2.00484,5.33562 -0.89044,2.09868 -1.93082,4.12853 -3.12252,6.07947 -1.80921,2.32276 -3.40433,4.78298 -5.10874,7.18359 -2.43888,3.00258 -4.52924,6.25756 -6.848272,9.3508 -1.984496,2.77025 -4.371809,5.21389 -6.440991,7.90584 -1.707793,1.97019 -3.773327,3.45179 -5.935042,4.85896 -2.796762,1.55306 -5.54926,3.22687 -8.197658,5.03496 -1.942816,1.16782 -4.092335,1.59639 -5.934269,2.89911 -1.009611,0.52494 -2.064605,0.95521 -3.142207,1.31781 0,0 12.504896,8.40782 12.504896,8.40782 v 0 c 1.125027,-0.47776 2.242093,-0.98427 3.282423,-1.63064 1.861699,-1.15963 4.115367,-1.58794 5.886562,-2.94821 2.63523,-1.80141 5.398392,-3.42628 8.171547,-5.00122 2.317241,-1.46845 4.427011,-3.18927 6.208851,-5.29269 2.08046,-2.69034 4.41142,-5.18461 6.39843,-7.95411 2.32522,-3.09938 4.42936,-6.35829 6.87375,-9.36805 1.75915,-2.40286 3.41718,-4.87068 5.21569,-7.24171 1.24006,-1.97319 2.3131,-4.04674 3.22078,-6.18566 0.89933,-1.77704 1.49317,-3.59407 2.08903,-5.5015 0.95748,-2.70775 0.77463,-5.45801 0.95077,-8.29699 0.26558,-2.71404 0.72147,-5.3934 1.64611,-7.97132 0.57307,-2.11597 0.26902,-4.29855 0.56237,-6.467 0.27706,-2.13657 0.76682,-4.207 1.64258,-6.18614 0.50051,-1.44055 0.39223,-2.89554 0.3852,-4.41046 0.0147,-0.8338 0.002,-1.66815 0.01,-2.50187 -0.0225,-1.25417 -0.0181,-2.50832 -0.0312,-3.76252 -0.0289,-2.53325 -0.0166,-5.06664 -0.0309,-7.59998 0.01,-2.98271 0.004,-5.96545 -0.003,-8.94814 0.009,-3.01145 1.6e-4,-6.02285 0.014,-9.0343 -0.0192,-2.93071 -0.006,-5.86138 -0.002,-8.79212 -0.0253,-3.31826 -0.0152,-6.63657 -0.0282,-9.95489 -0.0423,-4.59054 -0.0668,-9.18239 0.0317,-13.77237 0,0 -13.33325,-6.79363 -13.33325,-6.79363 z" />
  <path
     style="fill:#ff0000"
     id="path461"
     d="m 114.28676,250.82101 c -0.17926,4.89667 0.61197,9.71949 1.32222,14.5441 0.27984,3.06875 0.73099,6.01843 1.73635,8.9309 0.67252,2.59372 1.97429,4.94482 2.77012,7.49731 0.93045,2.2094 1.72414,4.51488 3.0186,6.543 3.57813,5.80058 12.74651,9.12765 17.37325,11.8264 1.88089,0.84731 3.96162,1.0414 5.99786,1.14716 1.42522,0.0434 2.85293,0.0326 4.27883,0.0119 0.8169,-0.008 1.63385,-0.007 2.45076,-0.002 0,0 -12.22154,-8.86477 -12.22154,-8.86477 v 0 c -0.80107,0.0178 -1.60225,0.0311 -2.40353,0.0346 -1.39524,-4.7e-4 -2.79253,0.0287 -4.18412,-0.0984 -1.94818,-0.20055 -3.87546,-0.6172 -5.57324,-1.64213 24.81576,14.57209 10.83255,7.68013 7.99182,3.63939 -1.20854,-2.00439 -2.24916,-4.00127 -3.19053,-6.18268 -0.73951,-2.60965 -1.99444,-4.97839 -2.76041,-7.55045 -0.94167,-2.88815 -1.83157,-5.65238 -1.94604,-8.74224 -0.72339,-4.7406 -1.72569,-9.47476 -1.32714,-14.29847 0,0 -13.33326,-6.79363 -13.33326,-6.79363 z" />
  <path
     style="fill:#ff0000"
     id="path463"
     d="m 84.496793,216.95282 c 4.433468,-1.95729 8.387502,-4.73833 12.489844,-7.26748 3.939403,-2.45462 8.022973,-4.77162 12.463933,-6.18751 3.45984,-1.80591 7.15529,-2.66367 10.99928,-3.10169 4.32342,-0.0468 8.50917,-1.12876 12.7679,-1.75336 3.42889,-0.45993 6.88325,-0.64984 10.33954,-0.71628 2.18898,-0.0394 4.37818,-0.003 6.56721,-7.9e-4 1.11776,-0.009 2.23548,0.0423 3.35308,0.0269 7.75219,0.94711 -13.70653,-11.64708 -10.87932,-6.61228 0.36573,1.08699 1.34892,1.57515 1.92659,2.57098 0.5533,1.48238 1.44206,2.76462 2.50922,3.93736 1.26576,1.17265 2.57999,2.29461 3.87667,3.43402 4.62353,4.51662 10.42194,8.10246 16.66712,9.83098 0.6823,0.14751 1.4048,0.0688 2.10524,0.0745 0,0 -12.14637,-8.90346 -12.14637,-8.90346 v 0 c -0.64184,-0.0505 -1.25529,-0.12704 -1.84172,-0.41639 -7.27575,-3.01049 17.99765,11.49418 9.10773,5.1063 -1.23202,-1.20279 -2.5566,-2.31643 -3.88609,-3.40817 -1.07231,-0.89393 -2.40603,-2.12695 -2.66015,-3.4535 -0.46155,-1.03048 -0.72462,-2.33465 -2.00176,-2.42373 -1.461,-5.778 -9.21378,-8.82696 -14.96284,-8.59324 -1.10171,-0.0184 -2.20376,0.0186 -3.30562,0.005 -2.18793,-0.0102 -4.37636,0.008 -6.56358,0.0653 -3.46542,0.14593 -6.92467,0.41149 -10.35743,0.92492 -4.24714,0.67379 -8.45741,1.55957 -12.76949,1.71081 -3.89417,0.56292 -7.5972,1.6325 -11.148135,3.35924 -4.46645,1.61378 -8.618908,3.98722 -12.647248,6.4786 -4.013958,2.55332 -7.948598,5.27814 -12.425946,6.99014 0,0 12.422342,8.32227 12.422342,8.32227 z" />
  <path
     style="fill:#ff0000"
     id="path465"
     d="m 274.03869,86.151631 c -5.01054,1.762102 -9.90539,3.905724 -14.49839,6.580797 -3.11267,1.624936 -6.1945,3.548569 -8.05736,6.588976 -1.3953,1.442046 -2.12214,3.254896 -2.67409,5.145146 -0.39625,1.37969 -0.40834,2.82628 -0.4278,4.25003 -0.0132,1.2325 -0.005,2.46548 0.015,3.69791 0.24467,1.93704 1.13177,3.71156 1.90254,5.48428 0.85941,1.47549 2.21213,2.54899 3.40364,3.74126 1.2612,1.29304 2.19648,2.88462 3.45151,4.17196 8.06107,5.77734 30.35962,17.75725 4.4475,3.01529 0.38306,0.28226 1.24243,0.93451 1.67232,1.17999 45.87648,26.19664 -8.53887,-4.76684 2.93904,1.67833 4.69527,2.63652 9.40769,5.24239 14.11154,7.86358 2.80904,0.82671 5.71259,1.08219 8.62422,1.17241 2.6834,0.0829 5.3684,0.0438 8.05254,0.0414 2.68313,0.31897 4.98464,-0.33815 7.47741,-1.20634 1.74081,-1.1957 3.2067,-2.61836 4.47711,-4.30014 0.8465,-1.48889 1.08989,-3.12639 1.22025,-4.80284 0.0591,-1.4826 0.0261,-2.96592 0.0273,-4.44904 0.008,-0.97222 -0.013,-1.94389 -0.004,-2.9162 -0.0118,-1.11305 -0.0114,-2.2262 -0.0123,-3.33931 -0.0144,-1.23864 0.0125,-2.47757 -0.002,-3.71615 0.0121,-1.14205 -0.002,-2.28391 0.005,-3.42596 -0.43885,-1.86325 -1.27,-3.64735 -1.94465,-5.45624 -0.98342,-2.43107 -2.21145,-4.70832 -3.6336,-6.90859 -1.28425,-1.445133 -2.19576,-3.146847 -3.67407,-4.407766 -7.48727,-5.099205 -10.09732,-7.956772 -16.9082,-7.940723 -1.88271,0.02934 -3.76568,0.04735 -5.64862,0.05248 -2.18939,0.0095 -4.37886,0.01707 -6.56828,0.01154 -2.70864,-0.352865 -5.0753,0.436862 -7.62248,1.178865 -2.31196,0.587394 -4.68417,0.834593 -7.05825,0.992156 -0.19454,0.0094 -0.38907,0.01886 -0.58361,0.02829 0,0 12.24171,8.754763 12.24171,8.754763 v 0 c 0.1917,-0.01956 0.3834,-0.03911 0.57511,-0.05867 2.4173,-0.26705 4.83203,-0.598211 7.17636,-1.268721 2.44957,-0.718472 4.83762,-1.025868 7.40237,-0.81393 2.19217,-0.0081 4.38437,-0.0041 6.57655,-0.01396 1.88436,-0.01424 3.77001,-0.03828 5.65382,0.01426 5.53749,0.339753 13.13948,6.802116 -9.22009,-6.46363 1.76109,1.05024 2.656,2.442513 3.90503,4.017399 1.70376,1.900505 2.78823,4.283661 3.73465,6.629757 0.94972,1.50314 0.88148,3.48218 2.18265,4.81816 0.008,1.14385 -0.007,2.28751 0.005,3.43137 -0.0145,1.2379 0.0125,2.47615 -0.002,3.7141 -10e-4,1.11055 -9.5e-4,2.22109 -0.0102,3.33161 0.0129,0.97924 -0.003,1.95828 0.0262,2.93718 0.0245,1.4548 0.0339,2.91032 0.0163,4.36517 -0.0426,1.3894 -0.12173,2.77997 -0.77791,4.04021 -1.06226,1.44177 -2.36294,2.72 -3.95787,3.55836 -2.36825,0.77854 -4.68848,0.98082 -7.18404,0.82035 -2.66416,0.0137 -5.32997,0.0172 -7.99234,-0.0929 -2.82632,-0.18796 -5.66835,-0.50917 -8.3091,-1.60617 3.86767,2.26067 7.7432,4.50795 11.60301,6.78201 0.34546,0.20354 -0.71186,-0.36982 -1.05928,-0.57002 -4.59841,-2.64976 -9.12737,-5.42207 -13.77773,-7.97956 -4.02415,-2.21311 7.92861,4.6372 11.89857,6.9461 0.58124,0.33805 -2.37118,-1.42983 -1.71456,-1.06273 -43.0482,-25.43185 7.86148,4.96913 -4.45778,-2.94523 -1.55889,-1.05768 -2.11132,-2.66297 -3.61181,-3.80792 -0.7618,-1.54042 -2.30146,-2.40408 -3.43871,-3.66988 -1.13277,-1.26205 -1.35966,-3.2548 -2.2376,-4.73001 0.0104,-1.22798 -0.006,-2.45615 -0.0228,-3.684 -10e-4,-1.30419 -0.0299,-2.63072 0.24039,-3.91236 0.4446,-1.81056 1.15514,-3.41237 2.44573,-4.79826 1.65506,-2.84499 4.72236,-4.47279 7.51173,-6.03183 4.52142,-2.560115 9.30053,-4.799885 14.34418,-6.103003 0,0 -12.2751,-8.553359 -12.2751,-8.553359 z" />
  <path
     style="fill:#ff0000"
     id="path467"
     d="m 266.02829,132.06677 c 0.0913,4.27958 0.0701,8.56117 0.0149,12.84114 -0.0345,1.88239 -0.0353,3.76511 -0.0434,5.64769 -0.0118,1.2222 -0.0173,2.44474 -0.003,3.66696 -0.0122,1.21544 0.001,2.43072 -0.008,3.64614 -0.0227,0.67746 -0.0111,1.35414 -0.007,2.03154 0.003,0.58524 -0.0214,1.16995 -0.004,1.75491 -0.004,0.81969 0.004,1.63901 0.008,2.45864 -0.0113,1.21228 0.0145,2.42438 0.0149,3.63671 -0.0145,1.24574 -8.6e-4,2.49127 -0.0169,3.73702 -0.0236,0.67381 -10e-4,1.3472 -0.003,2.0212 -0.0168,0.71406 0.004,1.42765 10e-4,2.1418 -0.0177,0.73289 0.003,1.46532 1.3e-4,2.1983 -0.006,0.46646 -0.0175,0.93201 -0.004,1.39826 0,0 13.43195,6.84393 13.43195,6.84393 v 0 c 0.0143,-0.46746 10e-4,-0.93427 -0.004,-1.40195 -0.003,-0.73293 0.0178,-1.46531 1.3e-4,-2.19817 -0.002,-0.71372 0.018,-1.42686 10e-4,-2.1405 -0.002,-0.67517 0.0201,-1.34973 -0.003,-2.02472 -0.0159,-1.25149 -0.002,-2.50276 -0.0169,-3.75424 4.7e-4,-1.20726 0.0263,-2.41428 0.0149,-3.62148 0.003,-0.81697 0.0114,-1.63364 0.008,-2.45069 0.0184,-0.58615 -0.008,-1.17215 -0.004,-1.75861 0.005,-0.67961 0.016,-1.35853 -0.007,-2.03821 -0.009,-1.21801 0.005,-2.43588 -0.008,-3.6539 0.0143,-1.22331 0.008,-2.44694 -0.003,-3.67023 -0.008,-1.89733 -0.009,-3.7948 -0.0434,-5.69195 -0.0545,-4.2749 -0.0774,-8.55146 0.0149,-12.82596 0,0 -13.33325,-6.79363 -13.33325,-6.79363 z" />
  <path
     style="fill:#ff0000"
     id="path469"
     d="m 265.47135,181.96255 c -2.17825,3.58071 -4.13273,7.27477 -6.32159,10.85097 -1.95072,3.27284 -3.93862,6.51336 -5.85234,9.81227 -1.7778,2.78534 -3.61919,5.57355 -5.69715,8.14181 -1.35453,1.35556 -2.35038,3.02313 -3.21327,4.72292 -0.38733,0.79859 -0.0846,2.0971 -0.67786,2.17946 -1.16203,1.37436 -1.99821,2.97779 -3.09578,4.38856 -1.41157,2.46628 -2.98854,4.86731 -4.09635,7.49736 -0.86213,2.01154 -0.86031,4.21541 -1.768,6.20108 -0.71996,1.1079 -1.25694,2.20932 -1.5565,3.4982 -0.17103,0.66527 -0.21384,1.33353 -0.21452,2.01628 -0.73254,0.4457 -1.16443,0.65198 -1.60303,1.41178 -0.44568,1.35892 -1.20457,2.55489 -1.75179,3.87912 -0.3508,1.33815 -1.29879,2.25417 -2.09487,3.36128 -0.73874,0.83754 -0.93012,1.90124 -1.07998,2.97214 0.0815,1.10944 -0.68491,1.59643 -1.19094,2.49477 -0.44312,1.00132 -0.74337,1.98444 -1.40939,2.85638 -5.65,5.44265 7.96032,9.76467 14.1344,10.04396 2.96441,0.089 5.9301,0.0548 8.8952,0.0421 2.61125,-0.0309 5.22266,-0.0257 7.83401,-0.0332 3.18831,-0.0221 6.37664,-0.0118 9.56498,-0.0166 2.30556,0.003 4.61114,0.0309 6.91668,0.0263 1.93616,-1.3e-4 3.87235,0.001 5.8085,-0.006 2.14255,0.13616 4.38596,-0.37533 6.41603,0.39586 1.44478,0.26845 2.57138,1.72092 4.01609,1.74961 0.92091,0.1467 1.84177,0.10538 2.76727,0.0947 2.84486,-0.0401 5.68995,-0.0655 8.53509,-0.0793 4.63811,-0.0197 9.27621,-0.003 13.9143,0.008 3.36024,-0.007 6.72043,0.0174 10.08065,0.0191 2.63842,6.4e-4 5.2769,-0.001 7.91531,0.009 1.77389,-0.70059 3.46256,-1.53007 5.32642,-1.94678 1.12133,-0.27535 2.27884,-0.25646 3.42581,-0.25535 1.58956,-1.47621 0.86295,-2.71188 -0.40187,-3.97523 -1.78964,-1.27188 -3.3344,-2.79609 -4.84028,-4.38986 -1.16516,-1.22467 -2.3289,-2.45069 -3.48744,-3.68162 -1.1412,-0.96351 -1.95232,-2.19294 -2.91705,-3.30401 -1.16995,-1.13853 -2.40845,-2.15431 -3.42399,-3.4413 -1.5422,-1.62804 -3.24815,-3.09176 -4.88392,-4.62407 -1.4194,-1.31825 -2.7866,-2.69036 -4.17003,-4.04577 -1.21321,-0.98424 -2.0641,-2.25403 -3.05683,-3.42114 -1.39266,-1.72518 -2.94194,-3.32601 -4.32947,-5.0568 -1.89031,-2.29512 -3.63175,-4.71491 -5.60358,-6.94076 -1.17084,-1.79276 -2.77464,-3.22438 -4.09884,-4.87959 -1.1581,-1.49713 -2.54175,-2.79819 -3.79686,-4.21029 -1.35731,-1.14728 -2.53291,-2.51451 -3.88883,-3.65927 -1.21886,-0.80464 -1.70302,-2.15686 -2.95499,-2.91662 -1.35417,-1.16849 -2.62907,-2.42646 -4.02227,-3.5534 -1.09242,-0.94962 -1.74102,-2.18204 -2.99278,-2.97588 -0.74274,-0.78695 -0.95051,-1.86082 -1.54471,-2.73612 -0.34536,-0.78667 -1.30213,-1.24064 -1.57993,-1.99326 -0.18781,-1.33564 -0.0864,-1.49201 -1.00402,-2.51354 -0.69016,-1.06243 -1.6115,-1.87413 -2.52701,-2.72632 -4.14937,-4.46246 -2.7372,-1.98613 -14.30376,-8.59913 0,0 11.99478,9.08715 11.99478,9.08715 v 0 c -10.23427,-6.20944 -15.18476,-11.37847 -11.56878,-6.29005 0.84343,1.02303 1.93336,1.43153 2.56931,2.60943 0.23536,0.33575 0.25664,0.9505 0.65676,1.04007 0.80095,0.1793 0.43132,-1.02299 0.62066,0.84049 0.13267,1.23326 0.35707,1.74521 1.32208,2.60878 0.75818,0.86621 1.20768,1.58965 1.53602,2.75596 0.62573,1.39483 2.58541,1.58421 2.86448,3.33245 1.49203,1.06243 2.60164,2.33359 4.1033,3.32218 0.70891,1.17982 2.48462,1.49859 2.85197,3.19823 1.61017,0.92549 2.36156,2.47474 4.0587,3.29739 1.15596,1.49238 2.47165,2.8356 3.83173,4.09403 1.17955,1.90552 3.05021,3.05385 4.08268,5.09918 2.07792,2.11387 3.72781,4.52937 5.63453,6.79826 1.34421,1.82442 2.99937,3.34387 4.20765,5.20694 1.21834,1.05499 1.75543,2.41754 3.07008,3.44233 1.37213,1.38379 2.77075,2.74211 4.17586,4.09214 1.61713,1.52989 3.2539,3.03772 4.91677,4.51807 1.18141,1.0977 1.89865,2.63538 3.37797,3.48363 1.15538,1.01975 1.70435,2.24584 2.88136,3.26677 1.19839,1.22031 2.38663,2.45064 3.561,3.6941 1.46508,1.56468 2.86524,3.49629 4.78652,4.4531 0.58819,0.5385 1.58477,1.76514 2.07935,0.87361 -1.2138,0.0713 -2.42376,0.18575 -3.58871,0.56007 -1.70707,0.51226 -3.28759,1.45232 -5.07218,1.6544 -2.63014,0.0105 -5.26035,0.008 -7.8905,0.009 -3.34264,0.002 -6.68524,0.026 -10.0279,0.0194 -4.62687,0.0123 -9.25374,0.0305 -13.88065,0.0176 -2.89896,-0.009 -5.79816,-0.0227 -8.69684,-0.0596 -0.85215,-0.0284 -1.70912,-0.13312 -2.51377,-0.42938 -1.17814,-0.84242 -2.63811,-1.24359 -4.01443,-1.62773 -2.20062,-0.23132 -4.4152,-0.099 -6.62583,-0.13026 -1.94135,-0.007 -3.88275,-0.006 -5.8241,-0.006 -2.28177,-0.005 -4.56357,0.0228 -6.84536,0.0256 -3.20185,-0.005 -6.40369,0.005 -9.60554,-0.009 -2.61364,0.003 -5.2272,0.0267 -7.84081,0.0388 -2.9312,0.0328 -5.86879,0.0727 -8.79426,-0.14409 -7.55001,-0.99032 9.49566,11.5675 10.81369,6.53019 0.71493,-0.95103 1.1406,-1.89827 1.50987,-3.02473 0.57546,-0.99114 1.66435,-1.7608 1.51841,-3.02768 0.0531,-0.85809 0.0862,-1.63664 0.67968,-2.31021 0.83431,-1.19663 1.91809,-2.21021 2.24044,-3.67801 0.50681,-1.27599 1.3246,-2.38087 1.70684,-3.68359 0.79192,-0.55345 1.55611,-1.16343 1.97077,-2.09202 -7.9e-4,-0.58641 -0.0343,-1.17405 0.0678,-1.75542 0.19889,-1.20505 0.70261,-2.17306 1.33977,-3.21806 0.94095,-2.03369 1.08497,-4.14974 1.75641,-6.2747 1.02305,-2.52513 2.54173,-4.81459 3.92423,-7.14535 0.96871,-1.28287 1.74596,-2.73028 2.87946,-3.8805 1.01937,-0.87668 1.05226,-1.65758 1.11938,-2.91907 0.72947,-1.64704 1.68845,-3.18541 2.93981,-4.49059 2.0751,-2.66714 3.97203,-5.48978 5.78294,-8.34417 1.89751,-3.29239 3.85017,-6.53762 5.79805,-9.79719 2.17951,-3.52854 4.02301,-7.24068 6.32837,-10.68746 0,0 -12.86879,-7.63698 -12.86879,-7.63698 z" />
  <path
     style="fill:#ff0000"
     id="path471"
     d="m 255.03253,270.61338 c 0.0515,3.2537 0.0383,6.50829 -0.012,9.76194 -0.24054,0.85122 0.52132,2.69173 -0.35474,3.19631 -0.70679,0.84405 -1.08883,1.90203 -1.75344,2.76798 -0.56714,0.7007 -1.18812,1.35456 -1.82336,1.99308 -0.68969,1.01958 -1.76743,1.46957 -2.60255,2.25128 -0.99454,1.21874 -2.42256,1.78003 -3.72006,2.64135 -1.30283,0.97467 -2.89291,1.25825 -4.47138,1.40666 -1.33536,0.099 -2.67599,0.0536 -4.01369,0.0516 -1.25539,-0.0145 -2.51074,-0.01 -3.76616,-0.0237 -6.54244,-0.69326 12.91131,12.61034 11.70883,6.40083 -0.0107,-0.0823 -0.0215,-0.16454 -0.0322,-0.2468 0,0 -13.48184,-6.76579 -13.48184,-6.76579 v 0 c 0.001,0.10966 0.002,0.21931 0.003,0.32896 0.3605,5.81638 8.32388,9.34224 13.9823,9.13883 1.25094,-0.005 2.5016,0.0108 3.75251,0.0111 1.37637,0.004 2.76104,-0.026 4.12399,-0.23125 1.73326,-0.31325 3.39239,-0.90593 4.8219,-1.96424 1.3437,-0.85364 2.79939,-1.51181 3.83237,-2.77043 1.02072,-0.68781 1.91029,-1.47092 2.7503,-2.37416 0.63619,-0.70779 1.26596,-1.42175 1.86966,-2.15761 0.61515,-0.8096 0.97575,-1.76361 1.63412,-2.54626 1.15697,-1.29838 0.9731,-2.63575 0.89762,-4.30187 -0.0496,-3.25773 -0.0641,-6.51641 -0.012,-9.77419 0,0 -13.33325,-6.79363 -13.33325,-6.79363 z" />
  <path
     style="fill:#ff0000"
     id="path473"
     d="m 299.01558,268.41423 c 0.11417,4.82274 -0.88997,9.59547 -1.50545,14.36447 -0.35146,2.4295 -0.55949,4.87353 -0.71082,7.32239 -0.025,1.00631 -0.036,2.01288 -0.052,3.01935 -0.003,1.12872 -0.0421,2.16201 0.47976,3.19177 0.62708,1.1111 1.48919,2.04163 2.36482,2.95728 3.93157,4.13819 6.03828,3.98924 14.04196,8.51126 0.17306,0.0978 0.76258,0.17959 0.591,0.0793 -14.84537,-8.68171 -16.27266,-9.71208 -12.01673,-6.70708 3.75072,4.63629 9.61503,7.63042 15.41028,9.02819 0.77611,-0.0886 1.55902,-0.0353 2.33874,-0.0415 0,0 -12.19094,-8.87936 -12.19094,-8.87936 v 0 c -0.69404,-0.0229 -1.42894,-0.002 -2.05972,-0.32633 -6.95601,-3.00457 15.96339,10.3793 10.38336,6.03101 -3.1535,-4.88923 -0.19063,-0.47824 -13.77606,-8.31018 -5.47413,-3.15581 16.4406,11.13544 11.16623,6.38378 -0.8623,-0.85864 -1.76212,-1.68418 -2.48989,-2.66543 -0.69918,-0.87405 -0.97649,-1.17651 -0.78973,-2.41665 -0.0376,-0.99133 -0.0455,-1.98382 -0.0257,-2.97567 0.036,-2.43886 0.21677,-4.87139 0.49227,-7.29486 0.56072,-4.82491 1.50187,-9.62498 1.6819,-14.4781 0,0 -13.33325,-6.79363 -13.33325,-6.79363 z" />
  <path
     style="fill:#ff0000"
     id="path475"
     d="m 216.44595,219.15197 c 3.26643,-1.33833 6.54481,-2.53104 9.72382,-4.04882 1.62163,-0.88371 3.23625,-1.51735 5.05933,-1.76292 1.46417,-0.0602 2.92957,-0.0318 4.39441,-0.0318 1.53642,0.0167 3.07284,0.0152 4.60925,0.0338 0.99621,-0.009 1.9925,-7.9e-4 2.98864,0.0121 1.12569,0.019 1.55908,0.18054 2.30908,-0.73087 0,0 -12.81526,-7.93385 -12.81526,-7.93385 v 0 c -0.29482,-0.17014 -1.07053,-0.26984 -1.70055,-0.20458 -0.98552,0.0126 -1.97123,0.0182 -2.95677,0.005 -1.52564,0.008 -3.05107,-0.008 -4.5767,-0.01 -1.5306,-0.0102 -3.07375,-0.0331 -4.58552,0.24461 -1.84586,0.44044 -3.5087,1.28203 -5.19123,2.14661 -3.14608,1.51334 -6.44092,2.65988 -9.68085,3.95824 0,0 12.42235,8.32227 12.42235,8.32227 z" />
  <path
     style="fill:#ff0000"
     id="path477"
     d="m 295.2811,211.86777 c 4.15435,1.38187 8.0527,3.39393 12.2535,4.63598 3.81906,0.70804 7.4916,1.91406 11.31254,2.63516 2.28295,0.85334 5.08069,0.0816 7.20871,1.23008 1.28817,0.9337 2.78629,1.31416 4.30384,1.70556 1.21079,0.0802 2.41952,0.0894 3.63185,0.0838 7.03884,0.61337 -16.72992,-10.46381 -10.18545,-5.8228 0,0 13.99893,5.50077 13.99893,5.50077 v 0 c -4.99954,-3.33583 -9.84851,-8.7737 -15.97971,-8.53139 -1.13786,-0.0228 -2.30508,-0.0584 -3.39425,-0.41579 -1.46522,-0.46398 -2.79022,-1.19601 -4.23237,-1.71368 -2.4025,-0.36693 -4.84902,-0.45191 -7.22241,-1.02936 -3.75867,-0.81543 -7.4548,-1.88618 -11.20041,-2.7529 -4.14489,-1.42031 -8.12876,-3.27472 -12.24844,-4.76808 0,0 11.75367,9.24263 11.75367,9.24263 z" />
  <path
     style="fill:#ff0000"
     id="path479"
     d="m 241.64424,114.34334 c -0.45713,3.58604 -2.09583,6.83823 -3.23961,10.22291 -0.63458,1.08382 -0.4054,2.63182 -1.07638,3.67937 -0.38127,0.51566 -0.82434,0.9798 -1.27599,1.43321 0,0 12.87316,7.84065 12.87316,7.84065 v 0 c 0.49341,-0.54594 0.98095,-1.09882 1.41074,-1.69736 0.76089,-1.21543 0.69721,-2.69249 1.17686,-4.0474 1.08734,-3.46368 2.66882,-6.78672 3.3251,-10.37733 0,0 -13.19388,-7.05405 -13.19388,-7.05405 z" />
  <path
     style="fill:#ff0000"
     id="path481"
     d="m 299.21425,116.80562 c 0.65702,3.40969 2.01406,6.63528 3.2177,9.88007 0.37691,1.8805 1.58758,3.2699 2.59715,4.81559 1.17999,1.12833 1.94675,2.54911 3.20954,3.59003 8.48393,4.85914 27.133,15.12362 1.65086,0.87614 -1.06255,-0.59409 1.08231,0.76524 1.57895,1.22772 4.50653,2.54959 8.99262,5.13566 13.5196,7.64878 0.42448,0.23564 1.82661,0.62541 1.4046,0.38536 -12.8151,-7.28958 -15.59059,-10.22409 -11.77225,-6.32972 0.35403,0.34322 0.73266,0.6588 1.11303,0.97186 0,0 14.02126,5.53979 14.02126,5.53979 v 0 c -0.41892,-0.25934 -0.8299,-0.53084 -1.2185,-0.83473 -4.32398,-3.39967 -31.83769,-18.42809 -3.03149,-1.98905 -0.88818,-0.25854 -0.86084,-0.74504 -1.60137,-1.17793 -4.49096,-2.62523 -8.88096,-5.4543 -13.56876,-7.70931 -4.28836,-2.06285 8.24989,4.74562 12.36735,7.13139 0.15053,0.0872 -0.31057,-0.15689 -0.46586,-0.23533 -1.52665,-0.87431 -2.31463,-1.92594 -3.36935,-3.25801 -1.2307,-1.00361 -2.37564,-2.83536 -2.84343,-4.34879 -1.27203,-3.15072 -2.68787,-6.32262 -3.34701,-9.65606 0,0 -13.46202,-6.5278 -13.46202,-6.5278 z" />
  <path
     style="fill:#ff0000"
     id="path483"
     d="m 35.117272,435.54982 c 0.148045,3.71301 -0.19404,7.44535 0.234338,11.1396 0.528351,2.25738 1.043043,4.5492 1.819902,6.7371 0.772744,1.82672 1.903549,3.37704 3.221941,4.83571 1.157766,1.4437 2.408032,2.84481 3.804057,4.06638 5.005109,4.13625 10.443824,8.05962 16.645731,10.14995 1.786555,0.30204 3.599011,0.34941 5.406643,0.39287 1.489281,-0.009 2.978514,-0.0174 4.46776,-0.0317 3.151733,-1.17025 5.90308,-3.43931 8.25228,-5.80876 3.096365,-2.69622 5.610217,-5.9679 7.412195,-9.64834 1.669855,-2.93445 2.803166,-6.02855 3.420725,-9.33984 0.415968,-2.4373 0.463759,-4.91623 0.472187,-7.38264 0.604818,-2.39305 1.27441,-4.75873 1.714991,-7.19274 0.372828,-1.93469 0.415361,-3.90817 0.473606,-5.87112 0.653578,-1.93599 1.37412,-3.80366 1.723773,-5.83463 0.351414,-2.74767 0.40444,-5.51857 0.456925,-8.28412 0.02277,-2.29083 0.0031,-4.58168 0.0092,-6.87252 -0.02728,-2.49846 -0.01064,-4.99702 -0.0176,-7.49554 -0.123732,-1.79873 0.711788,-3.42751 1.47125,-5.00677 0.39221,-1.12503 0.654671,-2.29724 0.745726,-3.48498 0.02715,-0.79755 0.0639,-1.59582 0.03693,-2.39366 -0.01706,-0.72998 0.01061,-1.45994 -0.01,-2.18969 -0.01373,-0.73195 0.01683,-1.46367 -0.0013,-2.19539 0.0052,-0.85511 -0.002,-1.70982 -0.0051,-2.56484 7.55e-4,-0.15768 0.0015,-0.31537 0.0023,-0.47305 0,0 -13.420842,-6.83828 -13.420842,-6.83828 v 0 c 7.51e-4,0.15845 0.0015,0.31689 0.0023,0.47534 -0.0032,0.85325 -0.01039,1.70619 -0.0053,2.55952 -0.01859,0.7323 0.01303,1.46462 2.26e-4,2.19716 -0.01905,0.7321 0.017,1.46407 0.0071,2.19645 -0.01681,0.77446 0.03885,1.54892 0.01062,2.32379 -0.0159,1.00967 -0.173014,2.01373 -0.457519,2.98353 -0.793208,1.77749 -1.794164,3.63396 -1.715368,5.61477 -0.0056,2.49584 0.01302,4.99167 -0.0047,7.4875 0.01628,2.28761 0.01658,4.5754 0.01459,6.86304 -0.0058,2.69782 -0.04205,5.40221 -0.34569,8.08579 -0.326261,2.11063 -1.0668,4.03603 -1.872558,6.00498 -0.0035,1.90059 -0.03893,3.80873 -0.32603,5.6913 -0.3966,2.52619 -1.054617,4.9742 -1.83317,7.40825 -0.0087,2.39383 0.01025,4.79783 -0.323172,7.17431 -0.519101,3.20001 -1.561514,6.17972 -3.193036,8.99568 -1.683395,3.56578 -4.150941,6.62967 -7.118186,9.22593 -2.120167,2.03341 -4.722824,4.35498 -7.727085,4.76971 -1.486335,-0.002 -2.973424,0.0235 -4.459156,-0.026 -1.706816,-0.0633 -3.468074,-0.12299 -5.046522,-0.84401 -5.576982,-3.10959 18.65002,12.06185 9.076487,4.78027 -1.509191,-1.1211 -2.608146,-2.41617 -3.983949,-3.65709 -0.873984,-1.7005 -2.7503,-2.70831 -3.328813,-4.62732 -1.177125,-1.88941 -1.212269,-4.34588 -2.083566,-6.38777 -0.698215,-3.57974 -0.17546,-7.28439 -0.291775,-10.91443 0,0 -13.333253,-6.79363 -13.333253,-6.79363 z" />
  <path
     style="fill:#ff0000"
     id="path485"
     d="m 118.80971,463.63353 c 0.28175,-7.20597 1.4386,-14.30582 2.63816,-21.4015 0.99636,-6.14827 2.99793,-12.00404 5.26015,-17.77794 2.17526,-3.90484 3.2252,-8.26787 4.88024,-12.37243 0.92016,-2.66057 2.24678,-5.13096 3.28442,-7.73735 1.23845,-3.60531 2.26996,-7.23721 2.99932,-10.98031 0.75408,-2.64049 1.67165,-5.23152 2.48657,-7.85542 0.0633,-1.47939 1.28732,-2.24329 1.93076,-3.42093 0.27883,-0.91797 1.13365,-1.3338 1.9639,-1.69122 7.94081,1.33628 -14.45897,-11.52306 -10.55947,-6.27836 0.63884,2.06802 0.45571,4.31451 0.4574,6.45622 0.003,4.06979 -0.004,8.13928 -0.023,12.20902 -0.34577,3.31728 0.41887,6.47205 1.19499,9.66006 0.29579,2.23016 1.49462,4.13042 2.36181,6.15823 0.45565,1.40095 0.8799,2.68804 1.60513,3.97604 1.24282,1.7029 2.6814,3.26578 3.93541,4.97243 1.62739,1.88379 2.64134,4.15906 4.0132,6.20724 1.05272,1.57243 1.82765,3.28673 2.8951,4.85314 1.20991,1.99737 1.7501,4.33145 2.6388,6.49054 1.3696,3.29849 2.3667,6.7097 3.84813,9.96513 0.63193,1.47034 0.3499,0.75382 0.85567,2.14579 0,0 13.57629,6.35441 13.57629,6.35441 v 0 c -0.49606,-1.48824 -0.22713,-0.71687 -0.81231,-2.31218 -1.62256,-3.20612 -2.72438,-6.55257 -3.9133,-9.93385 -1.01314,-2.19737 -1.63582,-4.46417 -2.40987,-6.73827 -1.16617,-1.53332 -2.15317,-3.10413 -2.91689,-4.882 -1.57233,-1.93075 -2.30589,-4.31168 -4.07095,-6.10832 -0.95468,-1.77843 -2.3877,-3.61224 -3.92384,-4.88231 -0.74575,-1.35311 -1.49197,-2.2444 -1.67201,-3.82752 -0.83972,-2.00996 -2.10375,-3.84596 -2.51685,-5.97733 -0.80517,-3.0956 -1.76379,-6.11841 -1.43786,-9.36582 -10e-5,-4.05644 0.014,-8.11247 0.0885,-12.16838 0.0324,-2.30064 0.14352,-4.62853 -0.14805,-6.91415 -1.07999,-6.10087 -10.01036,-10.61418 -15.68353,-8.31739 -0.97107,0.60267 -2.02363,1.33329 -2.40049,2.45995 -0.66279,1.25003 -2.05158,2.14137 -2.06417,3.71641 -0.72465,2.71109 -1.63122,5.36097 -2.44917,8.04351 -0.63836,3.67069 -1.66602,7.1929 -2.90457,10.70098 -1.028,2.61013 -2.39007,5.06288 -3.2557,7.74644 -1.64227,4.12028 -2.55223,8.54474 -4.78357,12.44519 -2.26236,5.88847 -4.28594,11.84359 -5.31939,18.09391 -1.13983,7.15375 -2.23266,14.29823 -2.95481,21.50867 0,0 13.30586,6.77967 13.30586,6.77967 z" />
  <path
     style="fill:#ff0000"
     id="path487"
     d="m 132.72015,437.63094 c 3.66919,-0.0367 7.33869,-0.0175 11.008,-0.0138 2.11708,0.0177 4.23421,0.015 6.35125,0.0377 1.01501,-2.2e-4 2.03033,0.0123 3.04535,0.002 0.70719,-0.003 1.41438,0.002 2.12151,0.0112 0,0 -12.20783,-8.8695 -12.20783,-8.8695 v 0 c -0.69688,0.009 -1.39383,0.014 -2.09077,0.0112 -1.01334,-0.0102 -2.02699,0.002 -3.04033,0.002 -2.08245,0.023 -4.16501,0.0198 -6.24751,0.0377 -3.68198,0.004 -7.36414,0.0228 -11.04601,-0.0138 0,0 12.10634,8.79577 12.10634,8.79577 z" />
  <path
     style="fill:#ff0000"
     id="path489"
     d="m 204.59036,455.10696 c 0.0618,-6.47854 -0.84967,-12.90604 -1.42553,-19.34746 -0.44928,-5.52431 -0.69388,-11.0642 -0.76907,-16.60579 -0.0381,-2.94523 -0.021,-5.89078 -0.0197,-8.83615 0.0119,-2.35023 0.028,-4.70055 0.0217,-7.05082 0.0158,-1.66623 0.0314,-3.33207 0.0165,-4.99835 0.0147,-1.37488 0.003,-2.7497 0.0148,-4.12456 0.0787,-1.57286 0.001,-3.05659 -0.53215,-4.54664 -0.6802,-1.59091 -1.10923,-3.26389 -1.45322,-4.95424 -0.18033,-0.70115 -0.21452,-1.40935 -0.21629,-2.12975 0.215,-1.19699 -0.90263,0.76864 0.82517,-0.36341 2.56854,-0.75569 4.85405,-2.15939 7.40054,-3.00053 2.17527,-0.69946 4.04827,-2.33418 6.26793,-2.86991 0.84941,-0.19604 1.70988,-0.29464 2.5784,-0.23219 0.90663,0.0697 1.83603,-0.27866 2.29536,0.57436 -24.07348,-12.88955 -14.07782,-9.78481 -10.8753,-5.6687 4.50181,5.31172 9.76879,6.96286 16.55079,10.91517 -29.63099,-17.26252 2.43315,2.10771 5.04367,2.79671 8.07519,2.36595 -12.8263,-11.63334 -10.63811,-6.42914 0.26044,0.72901 0.12139,1.41881 0.58013,2.07266 0.59211,0.74363 1.27249,1.21634 1.5354,2.13914 0.21441,0.80219 0.22077,1.62919 0.22027,2.45311 -0.0153,0.5135 -0.0114,1.02661 -0.01,1.54023 0.0173,0.58248 -0.0128,1.19376 -0.0758,1.74763 -0.81765,0.71971 -1.38758,1.28439 -1.76588,2.33418 -0.33618,0.9978 -0.33648,2.05672 -0.37067,3.09736 0.22547,1.83747 -0.32255,3.47472 -0.84399,5.20734 -0.75495,2.29816 -1.05738,4.70037 -1.21338,7.10369 -0.48051,1.65959 -0.96352,3.44247 -2.26623,4.63656 -1.46778,1.51565 -3.32439,2.39544 -5.12241,3.43828 -2.30196,1.07452 -4.84399,1.36377 -7.34626,1.57668 -1.70769,0.0912 -3.41868,0.0821 -5.12796,0.0571 -7.45207,-0.61543 7.92492,8.84512 13.40729,8.80765 1.90732,0.15328 3.62622,1.2506 5.49624,1.77564 1.69059,1.34543 3.90305,1.60475 5.66827,2.77255 -3.99201,-2.29226 -16.04652,-9.02663 -11.97604,-6.87679 4.69153,2.47785 9.20407,5.28132 13.84019,7.86135 0.29972,0.16679 1.25504,0.5467 0.95856,0.37422 -20.3899,-11.86207 -14.80488,-8.60177 -10.35571,-5.67025 1.16046,0.77449 2.14677,1.88794 2.52864,3.24585 0.1973,0.90733 0.21055,1.83566 0.20086,2.7596 -0.10015,1.23498 0.009,2.37844 0.46939,3.53629 0.95961,1.5092 1.21235,3.24825 1.69278,4.92868 0.56743,1.11629 1.37818,1.99886 1.8535,3.16678 0,0 13.65271,6.3701 13.65271,6.3701 v 0 c -0.40675,-1.26308 -0.75779,-2.4695 -1.83988,-3.31318 -1.06707,-1.39166 -0.4949,-3.5205 -1.68697,-4.9341 -0.5831,-1.02177 -0.9094,-1.69607 -0.72866,-2.90326 0.01,-1.01749 0.073,-2.03708 -0.0793,-3.0486 -0.23369,-1.72484 -0.89613,-3.0483 -2.08063,-4.3711 -0.58234,-0.35816 -1.15265,-0.73611 -1.74213,-1.0824 -46.09861,-27.08062 28.1674,16.69108 -16.39262,-9.44003 -1.96707,-0.83011 -3.89576,-1.72872 -5.85745,-2.55946 -1.89353,-0.6422 -3.6913,-1.62529 -5.76544,-1.4109 -8.15874,-0.0208 5.5229,9.37307 10.8996,8.8552 1.73256,-0.0129 3.46729,-0.0264 5.19176,-0.21765 2.64415,-0.34806 5.3083,-0.81025 7.67887,-2.10425 1.91209,-1.10053 3.83163,-2.129 5.37557,-3.74916 1.45326,-1.57393 2.11791,-3.58181 2.76074,-5.60185 0.12142,-2.29418 0.32981,-4.59696 1.03841,-6.7969 0.56142,-1.83309 1.35102,-3.57743 1.12815,-5.5364 -0.007,-0.90091 -0.0418,-1.81748 0.15328,-2.70195 0.23694,-0.89387 1.13806,-1.27592 1.6115,-2.06985 0.4847,-0.85557 0.51607,-1.45887 0.45665,-2.41755 0.006,-0.51614 0.0228,-1.03213 0.0144,-1.54839 -0.005,-0.91482 0.0539,-1.83696 -0.0875,-2.74281 -0.18969,-1.17402 -0.2153,-2.05682 -1.24167,-2.8052 -0.87695,-0.86264 -0.78795,0.20828 -0.83557,-1.48871 -1.08682,-5.94626 -9.40038,-7.47934 -14.81634,-9.27727 -4.90433,-2.21021 -1.51974,-0.71334 11.43198,6.76412 0.23605,0.13627 -0.44737,-0.3115 -0.67178,-0.46619 -0.15788,-0.10883 -1.69921,-1.16657 -1.7971,-1.22436 -4.59283,-2.7117 -9.21003,-5.38191 -13.81505,-8.07287 21.30032,12.43182 12.87251,8.7344 8.98551,4.36397 -5.00922,-4.77637 2.71518,-5.39424 -14.73813,-9.58808 -0.92198,0.0141 -1.84379,-0.0206 -2.76585,0.0131 -0.96107,0.0934 -1.90412,0.32533 -2.81578,0.64336 -2.096,0.9168 -4.03448,2.18504 -6.21424,2.92329 -2.53805,0.97826 -4.95732,2.24169 -7.55097,3.07617 -0.93632,0.20917 -1.87519,0.72134 -1.71746,1.81431 0.002,0.80432 -0.0797,1.62138 0.0994,2.409 0.36539,1.75167 0.72662,3.53261 1.40822,5.18975 0.5441,1.39271 0.93067,2.49319 0.72025,4.04059 0.0114,1.37991 3.8e-4,2.75977 0.015,4.1397 -0.0151,1.67104 7e-4,3.34167 0.0139,5.01269 -0.01,2.35344 -1.3e-4,4.70695 5e-4,7.06041 -0.009,2.96626 -0.009,5.93273 0.0623,8.89835 0.17529,5.60294 0.45501,11.2012 0.92154,16.7885 0.53563,6.35701 1.51915,12.71076 1.22383,19.10207 0,0 13.33326,6.79363 13.33326,6.79363 z" />
  <path
     style="fill:#ff0000"
     id="path491"
     d="m 265.31924,381.64133 c -4.43842,3.23148 -7.89795,7.3517 -10.84541,11.93888 -2.66973,3.5733 -4.23172,7.6831 -6.01598,11.71681 -1.20942,2.73305 -1.86157,5.60025 -2.10959,8.5641 -0.21083,2.91329 -0.1354,5.83571 -0.10807,8.75335 0.0196,3.76702 -0.20024,7.50403 0.56365,11.20966 0.5112,2.79882 1.46624,5.36291 3.20838,7.62021 5.02124,5.21253 11.53067,9.92715 18.65355,11.35794 2.24026,0.35699 4.53441,0.26734 6.79801,0.27062 2.18433,-0.0215 4.36878,-0.0173 6.55313,-0.0297 2.52589,-0.99022 3.69182,-3.52541 5.09038,-5.65872 1.54275,-2.3188 2.44488,-4.86608 2.96206,-7.58033 1.06465,-1.99874 1.40475,-4.26613 2.24877,-6.33679 1.09636,-2.57656 2.07992,-5.19719 3.06538,-7.81931 0.95899,-2.85087 1.31754,-5.84785 1.5003,-8.83588 0.12458,-2.22846 0.0973,-4.46136 0.11374,-6.69227 -0.007,-1.93244 -0.027,-3.86485 -0.0233,-5.79732 0.18709,-1.99477 -0.86175,-3.44316 -2.29628,-4.69079 -37.00653,-21.15071 -1.13681,-0.63913 -1.57312,-0.9272 -17.00489,-11.22765 -9.19207,-5.20128 -17.38092,-9.369 -2.10733,-1.27184 -4.49892,-1.77147 -6.89219,-2.17434 -0.29462,-0.16064 -0.58924,-0.32127 -0.88386,-0.48191 0,0 11.79825,9.25643 11.79825,9.25643 v 0 c 0.35426,0.0906 0.70851,0.18112 1.06277,0.27167 2.32871,0.48488 4.52772,1.30529 6.63146,2.42372 0.80969,0.3219 1.63803,0.59848 2.4349,0.95092 0.38344,0.1696 1.48513,0.77756 1.12407,0.56442 -3.94273,-2.32752 -15.85174,-9.17147 -11.87138,-6.90889 6.64394,3.77665 27.97466,16.33271 1.59086,0.83757 1.28899,0.83777 2.94798,1.75141 2.88723,3.43828 0.009,1.93193 -0.002,3.86388 0.0111,5.7958 0.0346,2.2125 0.036,4.42602 -0.0274,6.63804 -0.13484,2.85095 -0.37425,5.72145 -1.26843,8.45117 -0.95091,2.61164 -2.00519,5.17755 -3.06603,7.74418 -0.93007,2.15829 -1.24158,4.5532 -2.42024,6.63047 -0.39122,2.54048 -1.17447,4.9145 -2.63155,7.0639 -1.09136,1.66648 -2.08012,4.16209 -4.32937,4.39214 -2.17584,0.007 -4.3516,0.0482 -6.52753,0.0333 -2.19056,-0.013 -4.43846,0.0387 -6.54721,-0.63867 -4.58624,-1.99818 -11.26707,-6.46947 10.0696,6.04114 1.66148,0.9742 -4.595,-2.53377 -3.0601,-2.3947 -1.95701,-1.98196 -3.04247,-4.21977 -3.56121,-6.96682 -0.8845,-3.61057 -0.81195,-7.21932 -0.73637,-10.93105 0.0128,-2.87322 0.003,-5.74825 0.11026,-8.61969 0.19437,-2.80868 0.69779,-5.54961 1.82603,-8.15173 1.69989,-3.98424 3.22203,-8.03096 5.8137,-11.55914 2.85266,-4.46938 6.22495,-8.46738 10.7049,-11.40133 0,0 -12.6469,-7.99906 -12.6469,-7.99906 z" />
  <path
     style="fill:#ff0000"
     id="path493"
     d="m 346.84,384.28459 c -2.58738,3.56172 -5.25541,7.05382 -7.87253,10.59458 -2.48286,3.29385 -4.48184,6.84539 -6.49797,10.4339 -1.80334,2.8355 -3.6658,5.65085 -5.19019,8.65003 -0.85311,2.17656 -2.1112,4.13629 -3.04029,6.27476 -1.49422,2.38062 -2.77626,4.87367 -4.20896,7.28874 -1.65837,3.36101 -3.91148,6.32112 -6.34093,9.15 -2.22717,2.50396 -4.5708,4.90301 -6.98634,7.22509 -0.5728,0.40596 -0.75444,1.07291 -0.96919,1.70216 0,0 13.21702,7.21171 13.21702,7.21171 v 0 c 0.1009,-0.47833 0.15984,-0.73891 0.56719,-1.06939 2.31227,-2.45282 4.61538,-4.9144 6.89347,-7.39903 2.51139,-2.88126 4.82135,-5.90684 6.53703,-9.3433 1.46446,-2.47811 2.83224,-4.99136 4.36942,-7.42848 0.87561,-2.12969 2.18313,-4.03187 2.93826,-6.21777 1.49524,-2.99153 3.3639,-5.78302 5.1325,-8.61657 1.94013,-3.55569 3.93993,-7.02989 6.35551,-10.28946 2.62639,-3.53421 5.23426,-7.07642 7.96478,-10.53 0,0 -12.86878,-7.63697 -12.86878,-7.63697 z" />
  <path
     style="fill:#ff0000"
     id="path495"
     d="m 297.44352,380.94125 c 3.10952,4.90047 6.71771,9.45725 10.41646,13.9205 2.41697,2.623 4.51993,5.50714 7.04502,8.02821 1.68132,1.44425 3.02492,3.19832 4.64198,4.70334 1.93205,1.73827 3.48307,3.82849 5.35375,5.6301 1.71421,2.14052 3.85553,3.90515 5.6203,5.99101 1.04159,1.46828 2.19113,2.85384 3.12982,4.39139 1.27151,1.53614 1.96847,3.41392 2.97189,5.11049 0.98513,1.63404 1.52677,3.45124 1.79538,5.32701 0.006,1.66569 1.11708,2.92854 1.66922,4.43444 0.58609,1.93261 0.64257,3.96979 0.6895,5.97379 -0.0258,2.36817 0.21557,4.75579 -0.16094,7.10084 -0.60116,3.1125 -2.93624,5.46469 -4.70543,7.99609 -1.65309,2.08911 -3.31884,4.29668 -5.52915,5.82834 -1.16225,1.55367 -2.75866,2.54079 -4.2916,3.6852 -1.81523,1.21878 -3.78471,2.23133 -5.84301,2.99796 -1.97174,0.56605 -4.0201,0.70363 -6.05969,0.7668 -5.50023,0.0817 -7.10676,-2.52587 11.59843,7.06748 0.22019,0.11293 -0.0608,-0.56089 -0.27128,-0.69105 -4.50722,-2.78736 -9.16695,-5.32019 -13.75043,-7.98028 -10.25164,-0.163 -20.45183,2.05254 -30.50396,3.86963 -11.72106,2.37844 -23.54481,4.09578 -35.33837,6.03921 -8.16995,1.50386 -16.43308,2.23227 -24.72243,2.59105 -6.51793,0.20965 -13.04038,0.19814 -19.56088,0.18643 -6.8024,0.004 -13.60477,-0.0165 -20.40716,-0.0172 -6.66296,4.5e-4 -13.32593,-0.005 -19.98888,-0.0194 -5.06043,0.0914 -10.03784,0.11976 -15.02656,-0.74523 -4.81239,-0.93898 -9.71665,-1.1676 -14.60408,-1.35384 -4.79619,-0.78182 -9.58363,-1.5061 -14.29441,-2.70583 -4.21454,-0.7093 -8.22416,-2.19434 -12.37353,-3.17379 -2.12972,-0.56952 -4.31261,-0.80883 -6.506722,-0.93492 -0.65639,-0.0426 -1.312863,0.005 -1.969097,0.0215 0,0 12.244589,8.83898 12.244589,8.83898 v 0 c 0.61314,-0.002 1.22505,0.015 1.83643,0.0656 2.10739,0.16685 4.18633,0.52885 6.23381,1.06017 4.10137,1.07721 8.15468,2.32863 12.32532,3.12769 4.76286,1.11079 9.60097,1.90878 14.45938,2.46338 4.86757,0.2209 9.72857,0.58255 14.52144,1.50742 5.01192,0.72955 10.04343,0.52826 15.09767,0.50695 6.64949,-0.0133 13.29902,-0.018 19.94851,-0.009 6.81196,0.0106 13.62394,0.0112 20.43587,0.0376 6.51617,-0.004 13.03524,0.0134 19.54642,-0.28361 8.28668,-0.42407 16.53403,-1.27657 24.69459,-2.81965 11.74766,-1.94669 23.48741,-3.87522 35.17399,-6.17396 9.94141,-1.71545 20.49227,-4.40989 30.56478,-2.80298 -3.95671,-2.40631 -7.91931,-4.80296 -11.87013,-7.21894 -0.14993,-0.0917 0.31706,0.15314 0.46656,0.24551 4.37841,2.70516 8.71899,5.4717 13.11608,8.14639 0.26563,0.16158 0.88014,-0.24582 1.13893,-0.0789 2.13219,-0.18152 4.27246,-0.42825 6.28794,-1.19458 2.11934,-0.89666 4.21179,-1.95737 6.07261,-3.31497 1.52891,-1.13389 3.07533,-2.19821 4.28713,-3.68814 2.21736,-1.75665 4.00693,-4.03211 5.70704,-6.27313 1.91483,-2.68062 4.32942,-5.22285 5.05174,-8.51662 0.56397,-2.41853 0.30362,-4.90328 0.34543,-7.37669 -0.046,-2.1266 -0.074,-4.26199 -0.47838,-6.35851 -0.30595,-1.06105 -0.56235,-2.2494 -1.29555,-3.12236 -0.11364,-0.13529 -0.3587,-0.14418 -0.43432,-0.30386 -0.10735,-0.2267 -0.0431,-0.49981 -0.0646,-0.74971 -0.21423,-2.01784 -0.59026,-4.05576 -1.57666,-5.85576 -0.92376,-1.79485 -1.85689,-3.53011 -2.86382,-5.31125 -1.22769,-1.24321 -1.91317,-3.07861 -3.13839,-4.39668 -1.63481,-2.31629 -4.0079,-3.85314 -5.587,-6.24349 -1.94818,-1.75201 -3.55988,-3.70543 -5.30126,-5.62114 -1.67767,-1.5144 -3.05677,-3.13109 -4.69026,-4.67662 -2.62264,-2.4765 -4.79587,-5.26943 -7.21676,-7.93923 -3.72474,-4.34622 -7.36384,-8.79623 -10.40586,-13.65653 0,0 -13.6574,-6.05315 -13.6574,-6.05315 z" />
</svg>
